<?xml version="1.0" encoding="UTF-8" standalone="no"?>
<!-- Created with Inkscape (http://www.inkscape.org/) -->

<svg
   width="210mm"
   height="297mm"
   viewBox="0 0 210 297"
   version="1.1"
   id="svg5"
   inkscape:version="1.1 (c68e22c387, 2021-05-23)"
   sodipodi:docname="mapka_dojazdowa.svg"
   xmlns:inkscape="http://www.inkscape.org/namespaces/inkscape"
   xmlns:sodipodi="http://sodipodi.sourceforge.net/DTD/sodipodi-0.dtd"
   xmlns:xlink="http://www.w3.org/1999/xlink"
   xmlns="http://www.w3.org/2000/svg"
   xmlns:svg="http://www.w3.org/2000/svg">
  <sodipodi:namedview
     id="namedview7"
     pagecolor="#505050"
     bordercolor="#eeeeee"
     borderopacity="1"
     inkscape:pageshadow="0"
     inkscape:pageopacity="0"
     inkscape:pagecheckerboard="0"
     inkscape:document-units="mm"
     showgrid="false"
     inkscape:zoom="1.0729879"
     inkscape:cx="408.67188"
     inkscape:cy="581.08761"
     inkscape:window-width="1920"
     inkscape:window-height="1017"
     inkscape:window-x="-8"
     inkscape:window-y="-8"
     inkscape:window-maximized="1"
     inkscape:current-layer="layer3"
     showguides="false" />
  <defs
     id="defs2">
    <linearGradient
       inkscape:collect="always"
       id="linearGradient6999">
      <stop
         style="stop-color:#000000;stop-opacity:1;"
         offset="0"
         id="stop6995" />
      <stop
         style="stop-color:#000000;stop-opacity:0;"
         offset="1"
         id="stop6997" />
    </linearGradient>
    <linearGradient
       inkscape:collect="always"
       xlink:href="#linearGradient6999"
       id="linearGradient7001"
       x1="87.969527"
       y1="131.99077"
       x2="155.7998"
       y2="131.99077"
       gradientUnits="userSpaceOnUse" />
  </defs>
  <g
     inkscape:groupmode="layer"
     id="layer4"
     inkscape:label="background_layer">
    <path
       style="fill:#ffd5d5;fill-opacity:1;stroke:#b59bab;stroke-width:1;stroke-linecap:butt;stroke-linejoin:round;stroke-miterlimit:4;stroke-dasharray:none;stroke-dashoffset:0;stroke-opacity:1"
       id="path40187"
       sodipodi:type="arc"
       sodipodi:cx="118.55125"
       sodipodi:cy="124.07484"
       sodipodi:rx="85.483276"
       sodipodi:ry="83.880516"
       sodipodi:start="0"
       sodipodi:end="6.1729329"
       sodipodi:open="true"
       sodipodi:arc-type="arc"
       d="M 204.03452,124.07484 A 85.483276,83.880516 0 0 1 120.90713,207.92349 85.483276,83.880516 0 0 1 33.197825,128.69651 85.483276,83.880516 0 0 1 111.49074,40.480925 85.483276,83.880516 0 0 1 203.5155,114.84553" />
    <text
       xml:space="preserve"
       style="font-style:normal;font-variant:normal;font-weight:normal;font-stretch:normal;font-size:3.175px;line-height:1.25;font-family:'Arial Rounded MT Bold';-inkscape-font-specification:'Arial Rounded MT Bold, ';display:inline;fill:#070707;fill-opacity:1;stroke:none;stroke-width:0.1;stroke-miterlimit:4;stroke-dasharray:none;stroke-opacity:1"
       x="162.85484"
       y="-74.981659"
       id="text5235-0-7-6-0"
       transform="matrix(0.49443195,0.82103947,-0.89382472,0.5382634,0,0)"><tspan
         sodipodi:role="line"
         id="tspan5233-0-2-0-4"
         style="font-style:normal;font-variant:normal;font-weight:normal;font-stretch:normal;font-size:3.175px;font-family:'Arial Rounded MT Bold';-inkscape-font-specification:'Arial Rounded MT Bold, ';fill:#070707;fill-opacity:1;stroke:none;stroke-width:0.1;stroke-miterlimit:4;stroke-dasharray:none;stroke-opacity:1"
         x="162.85484"
         y="-74.981659">Sniadeckich</tspan><tspan
         sodipodi:role="line"
         style="font-style:normal;font-variant:normal;font-weight:normal;font-stretch:normal;font-size:3.175px;font-family:'Arial Rounded MT Bold';-inkscape-font-specification:'Arial Rounded MT Bold, ';fill:#070707;fill-opacity:1;stroke:none;stroke-width:0.1;stroke-miterlimit:4;stroke-dasharray:none;stroke-opacity:1"
         x="162.85484"
         y="-71.012909"
         id="tspan43605" /></text>
    <path
       style="fill:#ffff00;stroke:#000000;stroke-width:0.5;stroke-linecap:butt;stroke-linejoin:miter;stroke-miterlimit:4;stroke-dasharray:3, 0.5;stroke-dashoffset:0;stroke-opacity:1"
       d="m 64.653821,65.84743 c 4.881592,-4.423224 10.069416,-8.905686 15.864492,-12.134309 4.904698,-3.385084 9.598999,-2.823896 14.293301,-3.262221 9.140226,-0.614251 15.480576,-2.068464 22.949396,-3.184135 6.94315,2.9068 13.8863,3.207164 20.82945,4.763609 1.17932,2.999768 4.55843,5.450106 5.79514,7.477072 0,0 6.75934,8.529728 7.10516,9.913014 0.34582,1.383284 5.81403,10.373516 5.81403,10.373516 l 7.7556,14.708587 3.77001,6.782407 -0.0696,3.84468 L 148.3573,67.780957 137.1038,53.805633 c -6.40424,-1.220136 -12.80848,-1.796981 -19.21273,-4.207016 l -22.874174,3.18933 C 78.518611,53.677118 67.602241,65.251852 68.831454,66.046365 Z"
       id="path41899"
       sodipodi:nodetypes="ccccccscccccccccc" />
  </g>
  <g
     inkscape:groupmode="layer"
     id="layer3"
     inkscape:label="google_wektor-map_layer"
     style="display:inline">
    <path
       style="fill:#008000;stroke:#000000;stroke-width:0.264583px;stroke-linecap:butt;stroke-linejoin:miter;stroke-opacity:1"
       d="m 70.323314,74.606966 c 2.129433,7.936339 3.706649,15.995519 4.767172,24.141671 1.731205,11.307203 4.195572,22.506563 6.325702,33.723173 l 0.330205,9.24574 c 12.769171,5.79841 26.123557,10.33285 38.309797,17.35444 2.75496,4.45382 5.12656,-0.86764 7.12858,-3.02009 4.09005,-5.07419 7.91272,-10.35511 12.03399,-15.40527 -4.81109,-1.51005 -6.67631,-6.52899 -9.83133,-9.99996 -2.6333,-3.42347 -3.95032,-7.59624 -5.8754,-11.41831 3.19346,-4.71505 0.1111,-9.86655 -0.87551,-14.77535 l -4.83603,-18.422965 c -3.34815,-0.910071 -1.81973,3.295925 -5.20146,2.648574 -2.25832,0.968804 -4.335,0.364717 -4.37066,-2.510503 1.83387,-3.906531 -3.66813,-5.955173 -0.82796,-9.784814 2.40348,-1.916786 10.03846,0.241673 6.98868,-5.04651 -1.92661,-3.51767 -1.13776,-10.612361 -4.62094,-12.079585 l -40.936696,6.789158 z"
       id="path963"
       sodipodi:nodetypes="cccccccccccccccccc" />
    <path
       style="fill:#ff5555;stroke:#000000;stroke-width:0.239964px;stroke-linecap:butt;stroke-linejoin:miter;stroke-opacity:1"
       d="m 115.67105,189.19131 c 4.2457,-6.46281 8.49139,-12.92562 12.73709,-19.38843 8.49139,2.71021 16.98279,5.42042 25.47418,8.13063 -3.91051,7.08825 -7.82102,14.1765 -11.73153,21.26475 -3.01668,0 -6.03336,0 -9.05004,0 -5.8099,-3.33565 -11.6198,-6.6713 -17.4297,-10.00695 z"
       id="path1146" />
    <text
       xml:space="preserve"
       style="font-style:normal;font-variant:normal;font-weight:normal;font-stretch:normal;font-size:5.64444px;line-height:1.25;font-family:'Arial Rounded MT Bold';-inkscape-font-specification:'Arial Rounded MT Bold, ';fill:#c2ed09;fill-opacity:1;stroke:none;stroke-width:0.1;stroke-miterlimit:4;stroke-dasharray:none;stroke-opacity:1"
       x="146.45726"
       y="163.77846"
       id="text5235-0"
       transform="matrix(0.95303301,0.10147336,-0.11046899,1.0375195,0,0)"><tspan
         sodipodi:role="line"
         id="tspan5233-0"
         style="font-style:normal;font-variant:normal;font-weight:normal;font-stretch:normal;font-size:5.64444px;font-family:'Arial Rounded MT Bold';-inkscape-font-specification:'Arial Rounded MT Bold, ';fill:#c2ed09;fill-opacity:1;stroke:none;stroke-width:0.1;stroke-miterlimit:4;stroke-dasharray:none;stroke-opacity:1"
         x="146.45726"
         y="163.77846">Kanalowa</tspan></text>
    <path
       style="fill:#ffff00;fill-opacity:1;stroke:#000000;stroke-width:0.5;stroke-linecap:butt;stroke-linejoin:round;stroke-miterlimit:4;stroke-dasharray:4, 0.5;stroke-dashoffset:0.5;stroke-opacity:1"
       d="m 81.746393,141.71755 c 21.470097,10.79769 43.641727,20.08255 65.682697,29.6286 -1.71504,6.24904 -8.45747,-0.82268 -12.35726,-1.10275 -18.93493,-7.57873 -36.928415,-17.28798 -55.824236,-24.95614 0.832936,-1.1899 1.665863,-2.37981 2.498799,-3.56971 z"
       id="path3222" />
    <path
       style="fill:#10a47e;fill-opacity:1;stroke:#000000;stroke-width:0.5;stroke-linecap:butt;stroke-linejoin:miter;stroke-miterlimit:4;stroke-dasharray:3,0.5;stroke-dashoffset:0;stroke-opacity:1"
       d="m 107.80529,200.61779 c 2.90452,-2.17194 4.53589,-9.73947 8.7184,-7.79367 4.74287,2.69012 9.32457,5.82782 14.21384,8.16028 5.32587,0.11577 10.65174,0.23155 15.97761,0.34733 3.38967,-6.95074 7.28136,-13.73036 10.35217,-20.79053 0,-1.63713 0,-3.27426 0,-4.91139 -3.33239,-0.42792 -8.77556,-6.43628 -10.67351,-2.03463 0.21199,3.56087 7.72828,1.16182 7.77391,5.07137 -3.3053,6.18377 -6.02116,12.7126 -9.08855,19.03567 -0.28179,1.9297 -1.72368,2.0974 -3.3904,1.92364 -3.02289,-0.003 -6.15125,0.38475 -9.10993,0.14395 -5.64006,-3.52503 -11.28012,-7.05007 -16.92018,-10.5751 -1.78486,0 -3.56971,0 -5.35457,0 -2.13374,3.57311 -7.72137,8.87319 -7.80866,11.42308 1.76996,0 3.53991,0 5.30987,0 z"
       id="path3337" />
    <text
       xml:space="preserve"
       style="font-style:normal;font-variant:normal;font-weight:normal;font-stretch:normal;font-size:6.1201px;line-height:1.25;font-family:'Arial Rounded MT Bold';-inkscape-font-specification:'Arial Rounded MT Bold, ';fill:#00fff0;fill-opacity:1;stroke:#000000;stroke-width:0.1;stroke-miterlimit:4;stroke-dasharray:none;stroke-opacity:1"
       x="144.79247"
       y="-10.761394"
       id="text5235"
       transform="matrix(0.57047467,0.77014763,-0.83842135,0.62104735,0,0)"><tspan
         sodipodi:role="line"
         id="tspan5233"
         style="font-style:normal;font-variant:normal;font-weight:normal;font-stretch:normal;font-size:6.1201px;font-family:'Arial Rounded MT Bold';-inkscape-font-specification:'Arial Rounded MT Bold, ';fill:#00fff0;fill-opacity:1;stroke:#000000;stroke-width:0.1;stroke-miterlimit:4;stroke-dasharray:none;stroke-opacity:1"
         x="144.79247"
         y="-10.761394">Park Wilsona</tspan></text>
    <text
       xml:space="preserve"
       style="font-size:10.5833px;line-height:1.25;font-family:'Lucida Fax';-inkscape-font-specification:'Lucida Fax';stroke-width:0.264583"
       x="135.87248"
       y="149.99687"
       id="text23070"><tspan
         sodipodi:role="line"
         id="tspan23068"
         style="stroke-width:0.264583"
         x="135.87248"
         y="149.99687" /></text>
    <text
       xml:space="preserve"
       style="font-style:normal;font-variant:normal;font-weight:normal;font-stretch:normal;font-size:3.175px;line-height:1.25;font-family:'Arial Rounded MT Bold';-inkscape-font-specification:'Arial Rounded MT Bold, ';fill:#070707;fill-opacity:1;stroke:none;stroke-width:0.1;stroke-miterlimit:4;stroke-dasharray:none;stroke-opacity:1"
       x="-32.972279"
       y="198.42911"
       id="text5235-0-7"
       transform="matrix(0.58629799,-0.75817111,0.82538307,0.63827338,0,0)"><tspan
         sodipodi:role="line"
         id="tspan5233-0-2"
         style="font-style:normal;font-variant:normal;font-weight:normal;font-stretch:normal;font-size:3.175px;font-family:'Arial Rounded MT Bold';-inkscape-font-specification:'Arial Rounded MT Bold, ';fill:#070707;fill-opacity:1;stroke:none;stroke-width:0.1;stroke-miterlimit:4;stroke-dasharray:none;stroke-opacity:1"
         x="-32.972279"
         y="198.42911">Glogowska</tspan></text>
    <text
       xml:space="preserve"
       style="font-style:normal;font-variant:normal;font-weight:normal;font-stretch:normal;font-size:3.175px;line-height:1.25;font-family:'Arial Rounded MT Bold';-inkscape-font-specification:'Arial Rounded MT Bold, ';fill:#070707;fill-opacity:1;stroke:none;stroke-width:0.1;stroke-miterlimit:4;stroke-dasharray:none;stroke-opacity:1"
       x="131.7356"
       y="-45.120037"
       id="text5235-0-7-1"
       transform="matrix(0.17235296,0.9427954,-1.0263744,0.18763207,0,0)"><tspan
         sodipodi:role="line"
         id="tspan5233-0-2-5"
         style="font-style:normal;font-variant:normal;font-weight:normal;font-stretch:normal;font-size:3.175px;font-family:'Arial Rounded MT Bold';-inkscape-font-specification:'Arial Rounded MT Bold, ';fill:#070707;fill-opacity:1;stroke:none;stroke-width:0.1;stroke-miterlimit:4;stroke-dasharray:none;stroke-opacity:1"
         x="131.7356"
         y="-45.120037">Matejki</tspan></text>
    <path
       style="fill:none;stroke:#000000;stroke-width:0.264583px;stroke-linecap:butt;stroke-linejoin:miter;stroke-opacity:1"
       d="m 69.428259,160.54041 c 3.527218,-3.69615 4.592973,-11.14493 10.882934,-11.09505 6.282357,0.0848 11.867165,3.57597 17.665249,5.59497 7.666198,3.2598 15.143028,6.94214 22.777008,10.27452 -3.9787,6.16698 -7.95739,12.33396 -11.93609,18.50094 -13.1297,-7.75846 -26.259401,-15.51692 -39.389101,-23.27538 z"
       id="path37428" />
    <path
       style="fill:none;stroke:#000000;stroke-width:0.264583px;stroke-linecap:butt;stroke-linejoin:miter;stroke-opacity:1"
       d="m 50.927317,131.29699 3.381893,17.7052 c 7.342647,-4.84592 24.307458,-7.04955 21.704435,-7.80151 -1.235266,-15.30749 -5.314261,-34.30961 -5.590712,-48.298112 l -25.463657,4.97337 c 1.989345,11.140352 3.978701,22.280702 5.968041,33.421052 z"
       id="path37543"
       sodipodi:nodetypes="cccccc" />
    <path
       style="fill:#000080;fill-opacity:1;stroke:none;stroke-width:0.751879;stroke-linecap:butt;stroke-linejoin:round;stroke-miterlimit:4;stroke-dasharray:4.51127, 0.751879;stroke-dashoffset:0;stroke-opacity:1"
       d="m 471.42857,733.74607 c -17.16165,-9.91363 -31.5964,-18.26321 -32.07722,-18.5546 -0.57505,-0.34851 7.04112,-12.57156 22.25579,-35.71794 12.72151,-19.35347 23.44096,-35.49907 23.82101,-35.87913 0.42009,-0.42009 19.05909,5.16996 47.54099,14.25809 25.7675,8.222 46.94404,15.0631 47.059,15.20244 0.11494,0.13934 -9.51619,17.84733 -21.40251,39.35109 l -21.61151,39.09774 -17.19127,0.13355 -17.19127,0.13354 z m 84.71151,-30.11265 c 0.20457,-3.83448 -0.0123,-5.29296 -0.92235,-6.20301 -1.19309,-1.1931 -5.18468,-1.58808 -7.41187,-0.73343 -1.67289,0.64195 -1.56682,4.05172 0.12647,4.06598 0.96221,0.008 0.81068,0.26572 -0.56391,0.95867 -1.03383,0.52118 -1.99025,1.71902 -2.12538,2.66188 -0.38006,2.65188 1.2335,4.01227 4.48087,3.7778 1.56398,-0.11293 3.09529,0.0464 3.40289,0.35396 0.3076,0.3076 1.05125,0.46299 1.65255,0.34531 0.79204,-0.15501 1.16696,-1.59524 1.36073,-5.22716 z m -12.85554,-0.43793 c 2.3396,-5.28961 2.58812,-7.18879 0.98467,-7.52457 -0.83348,-0.17454 -1.65204,0.76771 -2.58595,2.9767 -1.22197,2.89034 -1.39352,3.03333 -1.62256,1.35238 -0.5969,-4.38075 -1.01599,-5.26316 -2.49965,-5.26316 -0.96071,0 -1.78228,0.75044 -2.26362,2.06767 -1.82363,4.99041 -1.72849,4.99041 -2.56316,0 -0.45453,-2.71761 -1.99114,-3.75669 -3.04171,-2.05685 -0.41188,0.66643 0.52527,6.88546 1.6129,10.70347 0.70418,2.47197 3.14137,1.49579 4.69296,-1.8797 1.25611,-2.73267 1.47952,-2.92325 1.54247,-1.31579 0.26323,6.72065 2.98949,7.16675 5.74365,0.93985 z m -16.91092,0.62175 c 2.64338,-2.64338 2.87511,-5.76091 0.63948,-8.60306 -2.09414,-2.66226 -6.88381,-2.82486 -8.52379,-0.28937 -2.62374,4.0564 -1.86617,8.2562 1.82626,10.12448 2.73569,1.38419 3.62208,1.20392 6.05805,-1.23205 z m -16.50385,-3.87675 c 0.2592,-2.24171 0.30091,-4.86178 0.0927,-5.82239 -0.38772,-1.78873 -2.81074,-3.14066 -5.62891,-3.14066 -1.83036,0 -4.33356,2.02171 -4.33356,3.49999 0,1.16995 2.69311,1.37642 3.38346,0.25941 0.25558,-0.41353 1.1496,-0.75188 1.98673,-0.75188 2.49349,0 1.13611,1.83545 -1.69808,2.29613 -3.65466,0.59405 -4.42399,1.24388 -4.42399,3.73683 0,2.63773 2.22537,4.08588 5.32586,3.46578 1.17405,-0.23481 2.34793,-0.0818 2.60863,0.34002 1.04804,1.69577 2.2415,-0.0289 2.68716,-3.88323 z m 5.25682,1.18083 c 0.27739,-1.65056 0.6246,-5.20027 0.77158,-7.88824 0.2447,-4.47504 0.14042,-4.88722 -1.23652,-4.88722 -1.34547,0 -1.5953,0.79115 -2.37345,7.51615 -0.47832,4.13388 -0.70054,7.78983 -0.4938,8.12434 0.9716,1.57208 2.85927,-0.0509 3.33219,-2.86503 z m -17.80656,0.5349 c 0.23589,-0.74321 0.51245,-3.29289 0.61458,-5.66595 0.21221,-4.93079 -0.61909,-5.95832 -4.50169,-5.56432 -1.33746,0.13572 -2.54196,-0.0839 -2.67667,-0.48802 -0.13471,-0.40413 -0.77992,-0.52949 -1.43379,-0.27858 -1.56213,0.59945 -2.72713,10.77728 -1.38499,12.09969 1.19413,1.17656 3.03997,-1.31103 3.03997,-4.09689 0,-3.07687 0.74286,-4.42907 2.4332,-4.42907 1.40811,0 1.48395,0.32248 1.02658,4.36516 -0.27163,2.40084 -0.25894,4.60009 0.0282,4.88722 0.96045,0.96045 2.42128,0.53609 2.85462,-0.82924 z m -11.75548,-5.78146 c 0.25999,-6.01986 -0.54897,-7.15296 -5.10675,-7.15296 -2.97996,0 -4.51795,1.07501 -4.51795,3.1579 0,1.69833 1.33899,1.73556 3.15969,0.0879 1.26557,-1.14533 1.50956,-1.15437 2.56868,-0.0952 1.05913,1.05913 0.84284,1.21939 -2.27709,1.68725 -4.12062,0.61793 -5.60768,2.53031 -4.26278,5.48204 0.74923,1.64438 1.23536,1.828 4.21269,1.5912 1.85115,-0.14723 3.36573,0.0133 3.36573,0.35677 0,0.34346 0.5921,0.51157 1.31579,0.37359 1.07596,-0.20515 1.35702,-1.20552 1.54199,-5.48839 z m -11.88034,2.97242 c 0,-0.63404 -0.87846,-2.88638 -1.95214,-5.00518 l -1.95215,-3.85237 2.36618,-2.21138 c 1.30139,-1.21626 2.2364,-2.60114 2.0778,-3.07752 -0.63032,-1.89327 -3.06373,-1.28518 -5.88622,1.4709 l -2.92415,2.85536 v -3.11574 c 0,-1.71365 -0.37081,-3.34491 -0.82403,-3.62501 -1.83807,-1.136 -2.86269,1.67102 -3.37828,9.25511 -0.50931,7.49161 -0.4799,7.70677 1.05324,7.70677 1.20411,0 1.69276,-0.61614 2.06584,-2.60479 0.26876,-1.43264 0.96192,-2.99757 1.54036,-3.47763 0.85737,-0.71155 1.34761,-0.16079 2.65317,2.98073 1.28839,3.10021 1.94935,3.85357 3.38093,3.85357 1.09763,0 1.77945,-0.44172 1.77945,-1.15282 z"
       id="path37718"
       transform="scale(0.26458333)" />
    <path
       style="fill:none;stroke:#000000;stroke-width:0.264583px;stroke-linecap:butt;stroke-linejoin:miter;stroke-opacity:1"
       d="m 56.497492,152.38408 c 2.785089,1.7241 5.570175,3.44821 8.355264,5.17231 3.315583,-3.77976 6.63116,-7.55953 9.946743,-11.33929 -6.100669,2.05566 -12.201338,4.11132 -18.302007,6.16698 z"
       id="path38055" />
    <path
       style="fill:none;stroke:#000000;stroke-width:0.264583px;stroke-linecap:butt;stroke-linejoin:miter;stroke-opacity:1"
       d="m 132.09273,163.72337 14.12437,-20.49029 14.92012,-17.50626 14.52224,-14.32331 4.77444,5.96804 0.5968,35.60934 -23.96339,22.64892 z"
       id="path38519" />
    <text
       xml:space="preserve"
       style="font-style:normal;font-variant:normal;font-weight:normal;font-stretch:normal;font-size:3.175px;line-height:1.25;font-family:'Arial Rounded MT Bold';-inkscape-font-specification:'Arial Rounded MT Bold, ';display:inline;fill:#070707;fill-opacity:1;stroke:none;stroke-width:0.1;stroke-miterlimit:4;stroke-dasharray:none;stroke-opacity:1"
       x="59.618614"
       y="185.88437"
       id="text5235-0-7-6"
       transform="matrix(0.70940157,-0.64445184,0.70158258,0.77229011,0,0)"><tspan
         sodipodi:role="line"
         id="tspan5233-0-2-0"
         style="font-style:normal;font-variant:normal;font-weight:normal;font-stretch:normal;font-size:3.175px;font-family:'Arial Rounded MT Bold';-inkscape-font-specification:'Arial Rounded MT Bold, ';fill:#070707;fill-opacity:1;stroke:none;stroke-width:0.1;stroke-miterlimit:4;stroke-dasharray:none;stroke-opacity:1"
         x="59.618614"
         y="185.88437">Glogowska</tspan></text>
    <path
       style="fill:none;stroke:#000000;stroke-width:0.264583px;stroke-linecap:butt;stroke-linejoin:miter;stroke-opacity:1"
       d="m 128.71084,82.160088 19.89348,-4.575503 3.9787,15.317983 6.36591,11.140352 5.76911,7.16165 -25.49928,29.44206 -9.83133,-9.99996 c -0.83818,0.0598 -10.31159,-15.16298 -3.68712,-15.59594 l -7.89982,-29.020685 z"
       id="path38661"
       sodipodi:nodetypes="cccccccccc" />
    <path
       style="fill:#ffff00;stroke:#000000;stroke-width:0.5;stroke-linecap:butt;stroke-linejoin:miter;stroke-miterlimit:4;stroke-dasharray:3, 0.5;stroke-dashoffset:0;stroke-opacity:1"
       d="m 64.653821,65.84743 c 4.456248,9.018379 4.476716,18.367365 5.769112,27.055138 v 0 c 4.662487,17.790812 6.22911,34.577122 8.824661,52.384692 l 2.498799,-3.56971 C 76.584187,116.49382 71.671989,91.037548 68.831454,66.046365 Z"
       id="path39109"
       sodipodi:nodetypes="ccccccc" />
  </g>
</svg>
